<?xml version="1.0" encoding="utf-8"?>
<!DOCTYPE svg PUBLIC "-//W3C//DTD SVG 1.1//EN" "http://www.w3.org/Graphics/SVG/1.1/DTD/svg11.dtd">
<svg version="1.1" xmlns="http://www.w3.org/2000/svg" xmlns:xlink="http://www.w3.org/1999/xlink" x="0px" y="0px" viewBox="0 0 419.5 595.3" enable-background="new 0 0 419.5 595.3" xml:space="preserve">
	<path d="M354,359c0,6,7,6,7,0l6-240c0-4,0-14-7-14c-6,0-7,10-7,17L354,359z M359,409c5,0,9-4,9-10c0-5-4-9-9-9c-6,0-10,4-10,9 C349,405,353,409,359,409z M175,530c12,0,22-14,22-41c0-54-42-104-100-104c-22,0-45,7-45,20c0,12,17,18,37,18c69,0,133-68,133-133 c0-36-20-74-20-115c0-31,11-59,33-59c10,0,18,6,18,17c0,8-4,13-8,13s-2-7-4-12c-1-3-4-4-6-4c-6,0-9,5-9,10c0,8,6,11,13,11 c10,0,18-9,18-19c0-11-8-21-23-21c-28,0-44,37-44,70s16,86,16,120c0,63-54,117-116,117c-17,0-33-4-33-12s12-13,27-13 c48,0,100,58,100,107c0,12-3,24-11,24s-12-13-12-30c0-58,45-103,99-103c12,0,34,2,34,13c0,8-13,13-27,13c-22,0-62-11-90-37 s-30-58-30-75c0-58,22-89,61-89c18,0,33,7,33,14s-16,13-30,13c-15,0-32-7-43-15c-23-16-37-41-37-71c0-40,26-78,71-78 c28,0,69,15,105,15c38,0,54-16,59-29c-20,11-30,18-53,18c-35,0-64-16-97-16c-52,0-91,41-91,88s38,92,87,92c18,0,33-6,33-17 s-17-18-35-18c-44,0-80,43-80,87c0,24,11,55,37,80s64,43,97,43c22,0,36-8,36-18c0-13-21-18-40-18c-54,0-104,41-104,103 C156,502,158,530,175,530z"/>
</svg>
